<svg xmlns="http://www.w3.org/2000/svg" width="212" height="76" viewBox="6 12 212 76" role="img" aria-label="delta">
  <defs>
    <linearGradient id="g" x1="0" y1="0" x2="0" y2="1">
      <stop offset="0" stop-color="#4f46e5"/>
      <stop offset="1" stop-color="#22d3ee"/>
    </linearGradient>
  </defs>
  <g transform="translate(2 9) scale(0.82)">
    <path fill="url(#g)" fill-rule="evenodd"
      d="M50 12 L88 86 L12 86 Z M50 42 L54 58 L70 62 L54 66 L50 82 L46 66 L30 62 L46 58 Z"/>
  </g>
  <path fill="#1a1a24"
    d="m 100.674,70.58 c 3.538,0 6.554,-1.392 8.642,-3.828 L 110.882,70 h 4.756 V 27.138 h -7.192 v 16.24 c -1.798,-1.45 -4.118,-2.146 -6.786,-2.146 -7.946,0 -13.224,5.916 -13.224,14.906 0,8.7 5.046,14.442 12.238,14.442 z m 7.772,-8.816 c -1.276,1.624 -3.19,2.552 -5.452,2.552 -4.35,0 -7.076,-3.364 -7.076,-8.642 0,-5.046 2.552,-8.178 6.728,-8.178 2.378,0 4.466,0.986 5.8,2.668 z m 27.84801,8.816 c 3.306,0 6.902,-0.696 9.976,-1.972 l -1.682,-5.104 c -2.262,0.928 -4.756,1.45 -7.134,1.45 -5.046,0 -8.178,-2.378 -9.048,-7.018 h 18.27 c 0.174,-1.16 0.348,-2.9 0.348,-4.176 0,-7.714 -4.698,-12.528 -12.238,-12.528 -8.41,0 -14.036,5.974 -14.036,14.732 0,9.048 5.916,14.616 15.544,14.616 z m -8.062,-17.168 c 0.406,-4.234 2.494,-6.496 6.032,-6.496 3.654,0 5.8,2.378 5.8,6.496 z m 31.79204,16.994 c 1.856,0 3.886,-0.348 5.394,-1.044 l -1.508,-4.93 c -0.638,0.232 -1.276,0.348 -1.798,0.348 -1.74,0 -2.668,-1.16 -2.668,-3.132 v -34.51 h -7.308 v 35.438 c 0,4.872 2.958,7.83 7.888,7.83 z m 19.49602,0 c 1.914,0 4.002,-0.406 5.8,-0.986 l -1.508,-5.278 c -0.812,0.348 -1.798,0.522 -2.668,0.522 -2.668,0 -4.35,-1.566 -4.35,-4.002 V 47.728 h 7.076 v -5.916 h -7.076 v -8.178 h -7.308 v 8.178 h -3.944 v 5.916 h 3.944 v 13.398 c 0,5.684 3.77,9.28 10.034,9.28 z M 206.73003,70 h 5.336 V 53.064 c 0,-7.656 -4.35,-11.832 -12.702,-11.832 -4.002,0 -8.352,0.986 -11.658,2.726 l 1.74,5.162 c 2.958,-1.16 5.742,-1.74 8.352,-1.74 4.524,0 6.96,1.74 6.96,5.104 v 0.754 c -12.18,0.174 -17.574,2.958 -17.574,8.932 0,5.104 3.77,8.41 9.744,8.41 3.596,0 6.612,-1.16 8.758,-3.364 z m -1.972,-7.25 c -1.392,1.276 -3.248,2.03 -5.394,2.03 -2.842,0 -4.756,-1.45 -4.756,-3.596 0,-2.552 2.9,-3.712 10.15,-3.828 z"/>
</svg>
